# xmcd
#
# Track frame offsets:
#	150
#	17401
#	34530
#	51264
#	79583
#
# Disc length: 1200 seconds
#
# Revision: 1
# Processed by: cddbd v1.5.2PL0 Copyright (c) Steve Scherf et al.
# Submitted via: audiograbber 1.83.01
#
DISCID=2c04ae05
DTITLE=Keith Urban - Somebody Like You
DYEAR=2005
DGENRE=Country
TTITLE0=Somebody Like You - Mix
TTITLE1=You Look Good In My Shirt
TTITLE2=Your're Not Alone Tonight
TTITLE3=Somebody Like You
TTITLE4=Daten-CD
EXTD=
EXTT0=
EXTT1=
EXTT2=
EXTT3=
EXTT4=
PLAYORDER=
